<svg width="256" height="256" viewBox="0 0 512 512" fill="none" xmlns="http://www.w3.org/2000/svg" role="img" aria-labelledby="title desc">
  <title id="title">Gold Shore Labs Penrose logo with transparent lettering</title>
  <desc id="desc">Blue Penrose triangle with Gold Shore Labs lettering punched out to transparent.</desc>
  <defs>
    <linearGradient id="cutout-frame" x1="120" y1="64" x2="420" y2="420" gradientUnits="userSpaceOnUse">
      <stop offset="0" stop-color="#2C64C8" />
      <stop offset="1" stop-color="#0B3878" />
    </linearGradient>
    <mask id="letter-mask" maskUnits="userSpaceOnUse">
      <rect width="512" height="512" fill="white" />
      <g fill="black">
        <text x="148" y="214" text-anchor="middle" dominant-baseline="middle" transform="rotate(-60 148 214)" font-family="'Inter Tight', 'Inter', 'Helvetica Neue', Arial, sans-serif" font-weight="700" font-size="72" letter-spacing="0.08em">GOLD</text>
        <text x="364" y="214" text-anchor="middle" dominant-baseline="middle" transform="rotate(60 364 214)" font-family="'Inter Tight', 'Inter', 'Helvetica Neue', Arial, sans-serif" font-weight="700" font-size="72" letter-spacing="0.08em">SHORE</text>
        <text x="256" y="380" text-anchor="middle" dominant-baseline="middle" font-family="'Inter Tight', 'Inter', 'Helvetica Neue', Arial, sans-serif" font-weight="700" font-size="72" letter-spacing="0.12em">LABS</text>
      </g>
    </mask>
    <linearGradient id="cutout-top" x1="250" y1="40" x2="388" y2="320" gradientUnits="userSpaceOnUse">
      <stop offset="0" stop-color="#3F7AED" />
      <stop offset="1" stop-color="#133F88" />
    </linearGradient>
    <linearGradient id="cutout-right" x1="300" y1="320" x2="444" y2="440" gradientUnits="userSpaceOnUse">
      <stop offset="0" stop-color="#1C4D9C" />
      <stop offset="1" stop-color="#092D64" />
    </linearGradient>
    <linearGradient id="cutout-left" x1="80" y1="280" x2="260" y2="60" gradientUnits="userSpaceOnUse">
      <stop offset="0" stop-color="#4D89F3" />
      <stop offset="1" stop-color="#1A4C99" />
    </linearGradient>
  </defs>
  <g mask="url(#letter-mask)" transform="scale(-1 1) translate(-512 0)">
    <path fill="url(#cutout-frame)" fill-rule="evenodd" d="M256 24L472 404H40L256 24ZM256 103.92L119.92 343.32H392.08L256 103.92Z" />
    <path d="M256 24L472 404H392.08L256 103.92V24Z" fill="url(#cutout-top)" opacity="0.95" />
    <path d="M472 404H40L119.92 343.32H392.08L472 404Z" fill="url(#cutout-right)" opacity="0.9" />
    <path d="M40 404L256 24V103.92L119.92 343.32L40 404Z" fill="url(#cutout-left)" opacity="0.9" />
  </g>
</svg>
