<svg width="160" height="48" viewBox="0 0 160 48" fill="none" xmlns="http://www.w3.org/2000/svg">
  <defs>
    <linearGradient id="gsSun" x1="8" y1="6" x2="42" y2="42" gradientUnits="userSpaceOnUse">
      <stop offset="0" stop-color="#2152ff" />
      <stop offset="1" stop-color="#4f46e5" />
    </linearGradient>
    <linearGradient id="gsWave" x1="0" y1="32" x2="80" y2="48" gradientUnits="userSpaceOnUse">
      <stop offset="0" stop-color="#0d1c5a" />
      <stop offset="1" stop-color="#2152ff" />
    </linearGradient>
    <clipPath id="gsClip">
      <rect x="0" y="0" width="160" height="48" rx="16" />
    </clipPath>
  </defs>
  <g clip-path="url(#gsClip)">
    <rect x="0" y="0" width="160" height="48" rx="16" fill="#ffffff" />
    <circle cx="32" cy="20" r="16" fill="url(#gsSun)" />
    <path
      d="M0 32c10-6 22-6 32 0s22 6 32 0 22-6 32 0 22 6 32 0 22-6 32 0v24H0V32z"
      fill="url(#gsWave)"
      opacity="0.75"
    />
    <path
      d="M0 36c10-5 22-5 32 0s22 5 32 0 22-5 32 0 22 5 32 0 22-5 32 0v16H0V36z"
      fill="#0d1c5a"
      opacity="0.9"
    />
    <path
      d="M36 12c-8 0-14 6-14 14s6 14 14 14c5.9 0 11.2-3.7 13.3-9.2h-7.4c-1.2 1.9-3.3 3.1-5.9 3.1-3.7 0-6.7-3-6.7-6.7 0-3.7 3-6.7 6.7-6.7 2.7 0 5 1.6 6.1 3.9H34v5.6h13.3c0.3-1 0.4-2.1 0.4-3.2C47.7 18 42.5 12 36 12z"
      fill="#ffffff"
      opacity="0.9"
    />
  </g>
</svg>
